REM DIRINDEX 1\3,1\4,1\5,1\6,1\2\7,1\2\8,1\2\9,1\10
REM DIRNAME cjc056,folder01,folder02,folder03,folder04,folder05,folder06,folder07,folder08,folder09
TITLE ""
FILE "2-54 Level 6-1001-1011.mp3" MP3
  TRACK 01 AUDIO
    TITLE "0:"
    INDEX 01 00:00:00
  TRACK 02 AUDIO
    TITLE "7:cjc056_3415"
    INDEX 01 00:00:07
  TRACK 03 AUDIO
    TITLE "0:"
    INDEX 01 00:01:22
  TRACK 04 AUDIO
    TITLE "8:cjc056_3416"
    INDEX 01 00:01:38
  TRACK 05 AUDIO
    TITLE "0:"
    INDEX 01 00:02:73
  TRACK 06 AUDIO
    TITLE "9:cjc056_3417"
    INDEX 01 00:03:12
  TRACK 07 AUDIO
    TITLE "0:"
    INDEX 01 00:05:48
  TRACK 08 AUDIO
    TITLE "7:cjc056_3418"
    INDEX 01 00:06:24
  TRACK 09 AUDIO
    TITLE "0:"
    INDEX 01 00:07:37
  TRACK 10 AUDIO
    TITLE "8:cjc056_3419"
    INDEX 01 00:07:51
  TRACK 11 AUDIO
    TITLE "0:"
    INDEX 01 00:08:72
  TRACK 12 AUDIO
    TITLE "9:cjc056_3420"
    INDEX 01 00:09:02
  TRACK 13 AUDIO
    TITLE "0:"
    INDEX 01 00:12:03
  TRACK 14 AUDIO
    TITLE "7:cjc056_3421"
    INDEX 01 00:12:54
  TRACK 15 AUDIO
    TITLE "0:"
    INDEX 01 00:13:61
  TRACK 16 AUDIO
    TITLE "8:cjc056_3422"
    INDEX 01 00:13:73
  TRACK 17 AUDIO
    TITLE "0:"
    INDEX 01 00:15:30
  TRACK 18 AUDIO
    TITLE "9:cjc056_3423"
    INDEX 01 00:15:44
  TRACK 19 AUDIO
    TITLE "0:"
    INDEX 01 00:18:46
  TRACK 20 AUDIO
    TITLE "7:cjc056_3424"
    INDEX 01 00:19:24
  TRACK 21 AUDIO
    TITLE "0:"
    INDEX 01 00:20:36
  TRACK 22 AUDIO
    TITLE "8:cjc056_3425"
    INDEX 01 00:20:51
  TRACK 23 AUDIO
    TITLE "0:"
    INDEX 01 00:22:15
  TRACK 24 AUDIO
    TITLE "9:cjc056_3426"
    INDEX 01 00:22:29
  TRACK 25 AUDIO
    TITLE "0:"
    INDEX 01 00:25:74
  TRACK 26 AUDIO
    TITLE "7:cjc056_3427"
    INDEX 01 00:26:52
  TRACK 27 AUDIO
    TITLE "0:"
    INDEX 01 00:27:57
  TRACK 28 AUDIO
    TITLE "8:cjc056_3428"
    INDEX 01 00:27:71
  TRACK 29 AUDIO
    TITLE "0:"
    INDEX 01 00:29:13
  TRACK 30 AUDIO
    TITLE "9:cjc056_3429"
    INDEX 01 00:29:29
  TRACK 31 AUDIO
    TITLE "0:"
    INDEX 01 00:32:25
  TRACK 32 AUDIO
    TITLE "7:cjc056_3430"
    INDEX 01 00:33:03
  TRACK 33 AUDIO
    TITLE "0:"
    INDEX 01 00:34:06
  TRACK 34 AUDIO
    TITLE "8:cjc056_3431"
    INDEX 01 00:34:18
  TRACK 35 AUDIO
    TITLE "0:"
    INDEX 01 00:35:53
  TRACK 36 AUDIO
    TITLE "9:cjc056_3432"
    INDEX 01 00:35:66
  TRACK 37 AUDIO
    TITLE "0:"
    INDEX 01 00:39:31
  TRACK 38 AUDIO
    TITLE "7:cjc056_3433"
    INDEX 01 00:40:13
  TRACK 39 AUDIO
    TITLE "0:"
    INDEX 01 00:41:14
  TRACK 40 AUDIO
    TITLE "8:cjc056_3434"
    INDEX 01 00:41:28
  TRACK 41 AUDIO
    TITLE "0:"
    INDEX 01 00:42:53
  TRACK 42 AUDIO
    TITLE "9:cjc056_3435"
    INDEX 01 00:42:68
  TRACK 43 AUDIO
    TITLE "0:"
    INDEX 01 00:45:71
  TRACK 44 AUDIO
    TITLE "7:cjc056_3436"
    INDEX 01 00:46:49
  TRACK 45 AUDIO
    TITLE "0:"
    INDEX 01 00:47:74
  TRACK 46 AUDIO
    TITLE "8:cjc056_3437"
    INDEX 01 00:48:12
  TRACK 47 AUDIO
    TITLE "0:"
    INDEX 01 00:49:47
  TRACK 48 AUDIO
    TITLE "9:cjc056_3438"
    INDEX 01 00:49:57
  TRACK 49 AUDIO
    TITLE "0:"
    INDEX 01 00:53:04
  TRACK 50 AUDIO
    TITLE "7:cjc056_3439"
    INDEX 01 00:53:57
  TRACK 51 AUDIO
    TITLE "0:"
    INDEX 01 00:54:68
  TRACK 52 AUDIO
    TITLE "8:cjc056_3440"
    INDEX 01 00:55:06
  TRACK 53 AUDIO
    TITLE "0:"
    INDEX 01 00:56:35
  TRACK 54 AUDIO
    TITLE "9:cjc056_3441"
    INDEX 01 00:56:49
  TRACK 55 AUDIO
    TITLE "0:"
    INDEX 01 00:58:73
  TRACK 56 AUDIO
    TITLE "7:cjc056_3442"
    INDEX 01 00:59:51
  TRACK 57 AUDIO
    TITLE "0:"
    INDEX 01 01:00:57
  TRACK 58 AUDIO
    TITLE "8:cjc056_3443"
    INDEX 01 01:00:72
  TRACK 59 AUDIO
    TITLE "0:"
    INDEX 01 01:02:38
  TRACK 60 AUDIO
    TITLE "9:cjc056_3444"
    INDEX 01 01:02:54
  TRACK 61 AUDIO
    TITLE "0:"
    INDEX 01 01:06:26
  TRACK 62 AUDIO
    TITLE "7:cjc056_3445"
    INDEX 01 01:07:02
  TRACK 63 AUDIO
    TITLE "0:"
    INDEX 01 01:08:11
  TRACK 64 AUDIO
    TITLE "8:cjc056_3446"
    INDEX 01 01:08:25
  TRACK 65 AUDIO
    TITLE "0:"
    INDEX 01 01:09:57
  TRACK 66 AUDIO
    TITLE "9:cjc056_3447"
    INDEX 01 01:09:71
  TRACK 67 AUDIO
    TITLE "0:"
    INDEX 01 01:12:52
